<svg id="tabs-icon-1" xmlns="http://www.w3.org/2000/svg" xmlns:xlink="http://www.w3.org/1999/xlink" width="100" height="90" viewBox="0 0 100 90">
  <defs>
    <clipPath id="clip-path">
      <path id="Clip_2" data-name="Clip 2" d="M0,0H100V90H0Z" fill="none"/>
    </clipPath>
  </defs>
  <path id="Clip_2-2" data-name="Clip 2" d="M0,0H100V90H0Z" fill="none"/>
  <g id="Group_3" data-name="Group 3" clip-path="url(#clip-path)">
    <path id="Fill_1" data-name="Fill 1" d="M49.4,90H11.41L0,78.653V50.324A50.03,50.03,0,0,1,14.821,14.74,50.582,50.582,0,0,1,50.6,0h37.99L100,11.347V39.676A50.03,50.03,0,0,1,85.179,75.26,50.582,50.582,0,0,1,49.4,90ZM34.11,24.952V54.977L19.018,69.207l2.578,2.7L53.181,42.129v.312h21.7V38.714H56.8L76.335,20.3l-2.578-2.7-35.9,33.851V24.952Z" fill="#33c786"/>
  </g>
</svg>
