<svg id="tabs-icon-3" xmlns="http://www.w3.org/2000/svg" xmlns:xlink="http://www.w3.org/1999/xlink" width="99" height="99" viewBox="0 0 99 99">
  <defs>
    <clipPath id="clip-path">
      <path id="Clip_2" data-name="Clip 2" d="M0,0H99V99H0Z" fill="none"/>
    </clipPath>
  </defs>
  <path id="Clip_2-2" data-name="Clip 2" d="M0,0H99V99H0Z" fill="none"/>
  <g id="Group_3" data-name="Group 3" clip-path="url(#clip-path)">
    <path id="Fill_1" data-name="Fill 1" d="M38.123,99H29l-6.454-6.454a11.756,11.756,0,0,0,1.378-5.554A11.907,11.907,0,0,0,6.454,76.457L0,70V60.877a11.77,11.77,0,0,0,4.9-2.953A11.834,11.834,0,0,0,8.392,49.5,11.837,11.837,0,0,0,4.9,41.075,11.93,11.93,0,0,0,0,38.123V29l6.454-6.454A11.906,11.906,0,0,0,23.921,12.007a11.756,11.756,0,0,0-1.378-5.553L29,0h9.126a11.77,11.77,0,0,0,2.953,4.9A11.835,11.835,0,0,0,49.5,8.391,11.835,11.835,0,0,0,57.924,4.9,11.76,11.76,0,0,0,60.877,0H70l6.454,6.454a11.755,11.755,0,0,0-1.379,5.553A11.906,11.906,0,0,0,92.546,22.542L99,29v9.127a11.909,11.909,0,0,0-4.9,19.8A11.783,11.783,0,0,0,99,60.877V70l-6.454,6.454A11.907,11.907,0,0,0,75.079,86.992a11.758,11.758,0,0,0,1.379,5.554L70,99H60.877a11.907,11.907,0,0,0-22.754,0ZM41.5,63.239l-5.644,13.79,3.474,1.421,5.644-13.79Zm12.771-4.348-3.461,1.451,4.042,9.642,3.461-1.451ZM63.047,53.7,61.625,57.17l13.789,5.644,1.421-3.474Zm-24.932-1.06-9.642,4.042,1.45,3.461L39.566,56.1Zm29.317-12.5-9.644,4.042,1.451,3.461L68.882,43.6Zm-46.52-3.391L19.49,40.222l13.79,5.644L34.7,42.392Zm20.865-7.173-3.461,1.451,4.042,9.643,3.461-1.45ZM58.45,21.1,52.806,34.9l3.473,1.421,5.645-13.791Z" fill="#d3b597"/>
  </g>
</svg>
