<svg xmlns="http://www.w3.org/2000/svg" width="92" height="88" viewBox="0 0 92 88">
  <path id="tabs-icon-4" d="M51.747,88H40.253L3.552,61.182,0,50.188,14.019,6.8l9.3-6.8H68.683l9.3,6.8L92,50.188,88.448,61.182,51.747,88ZM33.777,22.718H58.224L62.5,25.793l7.555,23.031L69.993,49h3.949L74,48.824,65.691,23.5,59.442,19H32.557l-6.249,4.5L18,48.824l.058.175h3.948l-.058-.176L29.5,25.793l4.275-3.075h0Zm8.612,14.055H49.61l.762.572L52.153,43H56l-2.515-7.988L50.8,33H41.2l-2.687,2.012L36,43h3.847l1.78-5.656.761-.571Z" fill="#3b7062"/>
</svg>
