<svg xmlns="http://www.w3.org/2000/svg" xmlns:xlink="http://www.w3.org/1999/xlink" viewBox="0 0 52.39 52.39"><defs><pattern id="a" width="169" height="169" patternTransform="translate(1152.13 -177.3) scale(1.32)" patternUnits="userSpaceOnUse" viewBox="0 0 169 169"><rect width="169" height="169" fill="none"/><rect width="169" height="169" fill="#000000"/></pattern></defs><title>ico-human-red</title><path d="M26.2,5.7A20.5,20.5,0,1,0,46.7,26.2,20.5,20.5,0,0,0,26.2,5.7Zm0,5.45a3.11,3.11,0,1,1-3.11,3.11A3.11,3.11,0,0,1,26.2,11.15Zm11,9.28-7.81,1.42v7.3L33,38.52A2,2,0,1,1,29.31,40L26.2,31.9,23.08,40a2,2,0,1,1-3.74-1.44L23,29.14v-7.3l-7.81-1.42a2,2,0,1,1,.71-3.94L26.2,18.36l10.33-1.87a2,2,0,0,1,.71,3.94Z" fill="url(#a)"/><path d="M26.2,0a26.2,26.2,0,1,0,26.2,26.2A26.2,26.2,0,0,0,26.2,0Zm0,49.65A23.45,23.45,0,1,1,49.65,26.2,23.45,23.45,0,0,1,26.2,49.65Z" fill="url(#a)"/></svg>