<svg xmlns="http://www.w3.org/2000/svg" xmlns:xlink="http://www.w3.org/1999/xlink" width="145.665" height="70.384" viewBox="0 0 145.665 70.384">
  <defs>
    <clipPath id="clip-path">
      <path id="Clip_17" data-name="Clip 17" d="M0,0H20.4V18.379H0Z" transform="translate(0.502 0.616)" fill="none"/>
    </clipPath>
    <clipPath id="clip-path-2">
      <path id="Clip_24" data-name="Clip 24" d="M0,0H6.348V8.357H0Z" transform="translate(0.092 -0.004)" fill="none"/>
    </clipPath>
    <clipPath id="clip-path-3">
      <path id="Clip_49" data-name="Clip 49" d="M0,0H21.122V21.027H0Z" transform="translate(0.36 0.595)" fill="none"/>
    </clipPath>
  </defs>
  <g id="Group_52" data-name="Group 52" transform="translate(0 -0.616)">
    <path id="Fill_1" data-name="Fill 1" d="M20,18H0V0H20V18Zm-9.563-5.429v.823h5.126v-.823ZM7.557,8.436v.823h8.006V8.436ZM4.592,4.295v.822H15.564V4.295H4.592Z" transform="translate(125 1)" fill="#d3b597"/>
    <g id="Group_51" data-name="Group 51">
      <path id="Fill_2" data-name="Fill 2" d="M17.139,9.038V23.454H11.293V8.6a32.163,32.163,0,0,0-.133-3.615C10.1,4.893,8.725,4.85,7.175,4.85c-1.729,0-4.252.088-6.776.308L0,.308C2.3.132,4.65,0,7.131,0c8.326,0,10.009,1.146,10.009,9.038" transform="translate(0 31.114)" fill="#3b7062"/>
      <path id="Fill_4" data-name="Fill 4" d="M3.366,4.894H.4L0,.133C1.285.044,2.967,0,4.207,0,8.06,0,9.212.882,9.212,4.453V23.367H3.366Z" transform="translate(20.15 31.202)" fill="#3b7062"/>
      <path id="Fill_6" data-name="Fill 6" d="M21.834,8.729V23.586H10.319l.133-4.937,5.536-.132V9.831a43.626,43.626,0,0,0-.222-4.365,9.018,9.018,0,0,0-2.745-.309A13.941,13.941,0,0,0,7.308,6.393L5.935,23.586H.087L1.816,6.348,0,.4,5.226,0l.841,2.689A17.377,17.377,0,0,1,14.7.132c5.138,0,7.131,2.072,7.131,8.6" transform="translate(33.393 30.982)" fill="#3b7062"/>
      <path id="Fill_8" data-name="Fill 8" d="M3.454,4.894H.443L0,.133C1.285.089,3.012,0,4.119,0,8.1,0,9.345.749,9.345,4.365V14.5H3.454Z" transform="translate(57.308 31.202)" fill="#3b7062"/>
      <path id="Fill_10" data-name="Fill 10" d="M0,18.429H5.27V4.894H.975L.708.133C1.948.044,2.923,0,4.518,0c5.8,0,6.643.617,6.643,7.363v16H0Z" transform="translate(69.223 31.202)" fill="#3b7062"/>
      <path id="Fill_12" data-name="Fill 12" d="M3.366,4.894H.4L0,.133C1.285.044,2.967,0,4.207,0,8.06,0,9.212.882,9.212,4.453V23.367H3.366Z" transform="translate(83.616 31.202)" fill="#3b7062"/>
      <path id="Fill_14" data-name="Fill 14" d="M17.139,9.038V23.454H11.293V8.6a32.163,32.163,0,0,0-.133-3.615C10.1,4.893,8.725,4.85,7.175,4.85c-1.728,0-4.252.088-6.776.308L0,.308C2.3.132,4.65,0,7.131,0c8.326,0,10.009,1.146,10.009,9.038" transform="translate(95.795 31.114)" fill="#3b7062"/>
      <g id="Group_18" data-name="Group 18" transform="translate(103.207)">
        <path id="Clip_17-2" data-name="Clip 17" d="M0,0H20.4V18.379H0Z" transform="translate(0.502 0.616)" fill="none"/>
        <g id="Group_18-2" data-name="Group 18" clip-path="url(#clip-path)">
          <path id="Fill_16" data-name="Fill 16" d="M18.074,18.379H10.323A10.311,10.311,0,0,1,0,8.1V2.318L2.328,0h7.75A10.311,10.311,0,0,1,20.4,10.276v5.786l-2.327,2.316ZM4.63,7.855V8.7H9.118l6.394,6.042.581-.608-3.065-2.9V5.062h-.844v5.372L7.909,6.395,4.977,3.623l-.086-.083-.581.61.087.082L7.328,7l.9.852H4.63Z" transform="translate(0.502 0.616)" fill="#33c786"/>
        </g>
      </g>
      <path id="Fill_19" data-name="Fill 19" d="M6.7,2.381V7.848H3.069l.03-.9H5.6V2.531a7.625,7.625,0,0,0-.106-1.408A2.057,2.057,0,0,0,4.318.884a5.221,5.221,0,0,0-2.588.809l-.6,6.155H0l.677-6.2L.136.06,1.159,0l.316.944A5.616,5.616,0,0,1,4.529,0C6.109,0,6.7.555,6.7,2.381" transform="translate(11.514 62.673)" fill="#3b7062"/>
      <path id="Fill_21" data-name="Fill 21" d="M2.828,3.789H2A8.992,8.992,0,0,0,2.467.9,5.579,5.579,0,0,0,2.391,0h1.1a2.2,2.2,0,0,1,.076.629,6.878,6.878,0,0,1-.737,3.159Zm-2,0H0A8.991,8.991,0,0,0,.465.9,5.458,5.458,0,0,0,.391,0h1.1a2.234,2.234,0,0,1,.075.629A6.89,6.89,0,0,1,.827,3.788Z" transform="translate(20.21 60.861)" fill="#3b7062"/>
      <g id="Group_25" data-name="Group 25" transform="translate(25.172 62.647)">
        <path id="Clip_24-2" data-name="Clip 24" d="M0,0H6.348V8.357H0Z" transform="translate(0.092 -0.004)" fill="none"/>
        <g id="Group_25-2" data-name="Group 25" clip-path="url(#clip-path-2)">
          <path id="Fill_23" data-name="Fill 23" d="M6.348.06,6.017,3.894a4.106,4.106,0,0,1-3.1,3.7A21.321,21.321,0,0,1,0,8.357V7.323a22.2,22.2,0,0,0,2.256-.509C1.594,4.507.842,2.321.044.089L1.113,0c.738,2.082,1.43,4.223,2.031,6.485A2.911,2.911,0,0,0,5.009,3.624L5.2.06Z" transform="translate(0.092 -0.004)" fill="#3b7062"/>
        </g>
      </g>
      <path id="Fill_26" data-name="Fill 26" d="M6.62,6.994v.9H0v-.9H4.318V2.112A5.479,5.479,0,0,0,4.242,1,10.061,10.061,0,0,0,2.588.9C1.881.9.888.928.135,1L.06.1C.828.03,1.715,0,2.512,0c2.438,0,2.9.3,2.9,2.172V6.949Z" transform="translate(33.447 62.628)" fill="#3b7062"/>
      <path id="Fill_28" data-name="Fill 28" d="M6.635,7.893H.075V1L0,.149C.9.079,2.07,0,3.1,0,6.37,0,6.635.2,6.635,2.635V7.892ZM3.219.884c-.646,0-1.335.03-2.047.089V6.994H5.536V2.531A12.409,12.409,0,0,0,5.46,1,15.006,15.006,0,0,0,3.219.884Z" transform="translate(46.129 62.628)" fill="#3b7062"/>
      <path id="Fill_30" data-name="Fill 30" d="M1.218.9H.091L0,.015C.331,0,.692,0,1.023,0,2.031,0,2.332.15,2.332,1.123V4.508H1.218Z" transform="translate(54.703 62.673)" fill="#3b7062"/>
      <path id="Fill_32" data-name="Fill 32" d="M2.8,8.536a12.232,12.232,0,0,1-1.775-.119C.971,8.178.941,7.955.912,7.74c-.013-.1-.026-.19-.04-.281L.167,1.812C.111,1.419.05.791,0,.09L1.008,0l.121.659L1.976.63C2.635.606,3.257.584,3.776.584,6.728.584,7.1.876,7.1,3.19A6.348,6.348,0,0,1,6.044,7.137,3.881,3.881,0,0,1,2.8,8.536ZM3.837,1.482c-.817,0-1.663.024-2.588.075L1.94,7.578c.3.031.675.045.918.045,2.164,0,3.129-1.4,3.129-4.539A10.626,10.626,0,0,0,5.9,1.617,10.348,10.348,0,0,0,3.837,1.482Z" transform="translate(59.321 62.044)" fill="#3b7062"/>
      <path id="Fill_34" data-name="Fill 34" d="M5.476,3.549c0,3.5-.647,4.344-3.55,4.344H.06v-.9H1.73c2.376,0,2.632-.359,2.632-3.474A16.05,16.05,0,0,0,4.227,1,10.384,10.384,0,0,0,2.557.9C1.82.9.873.928.06,1L0,.1A24.5,24.5,0,0,1,2.482,0C4.9,0,5.476.329,5.476,3.549" transform="translate(68.272 62.628)" fill="#3b7062"/>
      <path id="Fill_36" data-name="Fill 36" d="M0,6.964H2.151V.914H.511L.451.03C.812.015,1.023,0,1.609,0c1.459,0,1.64.195,1.64,1.513v6.35H0Z" transform="translate(75.568 62.658)" fill="#3b7062"/>
      <path id="Fill_38" data-name="Fill 38" d="M5.777,3.16,2.783,10.139H1.624l3.1-6.919V3.19H.271L.12,2.306,0,.12.978,0l.166,2.321h4.5Z" transform="translate(84.654 60.382)" fill="#3b7062"/>
      <path id="Fill_40" data-name="Fill 40" d="M1.189.9H.045L0,.015C.347,0,.632,0,.978,0,1.986,0,2.287.15,2.287,1.123V7.848h-1.1Z" transform="translate(92.144 62.673)" fill="#3b7062"/>
      <path id="Fill_42" data-name="Fill 42" d="M6.394,7.893H5.3V2.142A7.142,7.142,0,0,0,5.235,1,14.2,14.2,0,0,0,3.145.884c-.852,0-2.057.041-3.07.1L0,.121C.951.044,2.042,0,2.993,0c2.955,0,3.4.288,3.4,2.2V7.892Zm-5.01,0H.285V5.616A22.31,22.31,0,0,1,.421,3.385c.307-.03.64-.045.962-.045V7.892Z" transform="translate(97.109 62.628)" fill="#3b7062"/>
      <path id="Fill_44" data-name="Fill 44" d="M1.218.9H.091L0,.015C.331,0,.692,0,1.023,0,2.031,0,2.332.15,2.332,1.123V4.508H1.218Z" transform="translate(105.442 62.673)" fill="#3b7062"/>
      <path id="Fill_46" data-name="Fill 46" d="M0,6.964H2.151V.914H.511L.451.03C.812.015,1.023,0,1.609,0c1.459,0,1.64.195,1.64,1.513v6.35H0Z" transform="translate(109.655 62.658)" fill="#3b7062"/>
      <g id="Group_50" data-name="Group 50" transform="translate(124.184 19.212)">
        <path id="Clip_49-2" data-name="Clip 49" d="M0,0H21.122V21.027H0Z" transform="translate(0.36 0.595)" fill="none"/>
        <g id="Group_50-2" data-name="Group 50" clip-path="url(#clip-path-3)">
          <path id="Fill_48" data-name="Fill 48" d="M15.623,21.027a5.483,5.483,0,0,1-4.286-2.046H9.785A5.5,5.5,0,0,1,0,15.552a5.438,5.438,0,0,1,2.054-4.265V9.741A5.469,5.469,0,0,1,5.5,0,5.486,5.486,0,0,1,9.785,2.046h1.552a5.488,5.488,0,1,1,7.73,7.7v1.546a5.468,5.468,0,0,1-3.444,9.74ZM9.139,12.193v.851h3.254l2.3,2.291.6-.6-2.552-2.541Zm-2.712-6.5-.6.6L8.375,8.834h3.608V7.983H8.728l-2.3-2.291Z" transform="translate(0.36 0.595)" fill="#3b7062"/>
        </g>
      </g>
    </g>
  </g>
</svg>
